<?xml version="1.0" encoding="UTF-8" standalone="no"?>
<!-- Created with Inkscape (http://www.inkscape.org/) -->

<svg
   width="600"
   height="700"
   viewBox="0 0 158.75001 185.20834"
   version="1.1"
   id="svg5"
   inkscape:version="1.1.1 (3bf5ae0d25, 2021-09-20)"
   sodipodi:docname="gitzorro.svg"
   xmlns:inkscape="http://www.inkscape.org/namespaces/inkscape"
   xmlns:sodipodi="http://sodipodi.sourceforge.net/DTD/sodipodi-0.dtd"
   xmlns="http://www.w3.org/2000/svg"
   xmlns:svg="http://www.w3.org/2000/svg">
  <sodipodi:namedview
     id="namedview7"
     pagecolor="#ffffff"
     bordercolor="#666666"
     borderopacity="1.0"
     inkscape:pageshadow="2"
     inkscape:pageopacity="0.0"
     inkscape:pagecheckerboard="0"
     inkscape:document-units="mm"
     showgrid="false"
     inkscape:snap-grids="false"
     inkscape:snap-to-guides="false"
     inkscape:zoom="0.54929738"
     inkscape:cx="196.61481"
     inkscape:cy="461.49865"
     inkscape:window-width="2560"
     inkscape:window-height="1017"
     inkscape:window-x="1358"
     inkscape:window-y="-8"
     inkscape:window-maximized="1"
     inkscape:current-layer="layer1"
     showguides="false"
     inkscape:guide-bbox="true"
     units="px" />
  <defs
     id="defs2" />
  <g
     inkscape:label="Camada 1"
     inkscape:groupmode="layer"
     id="layer1">
    <path
       id="rect858"
       style="fill:#000000;fill-opacity:1;stroke:none;stroke-width:0.298212;stroke-linecap:round;stroke-linejoin:round;paint-order:stroke fill markers"
       d="m 83.389301,10.617008 c -0.463845,4.32e-4 -0.932123,0.0028 -1.405185,0.0086 -21.552743,-0.191523 -29.460602,3.151148 -29.510828,5.041432 0.05615,1.202149 3.409002,3.418703 9.144048,4.53572 -3.211577,0.01152 -6.368031,-0.530716 -9.356272,-2.752628 l -1.855177,22.641266 c 3.932404,2.49729 9.317163,3.324585 14.292883,4.622118 -3.840704,-0.630105 -3.905417,-0.002 -13.642447,-2.597168 -1.602577,-0.704695 -2.477132,-1.613895 -2.283713,-2.823705 l 0.644301,-9.030025 C 10.930542,33.04163 6.070799,37.621441 6.0708847,40.994958 6.1048667,45.65489 21.383206,54.70496 67.496412,56.903198 c -3.06467,0.714457 -8.962235,0.556607 -16.144,0.0059 0.527203,7.406424 3.240611,14.812964 5.763476,22.21939 -6.261478,0.478043 -10.90102,13.562838 -14.536814,19.514865 -6.314878,4.123887 -16.097118,6.875037 -23.898184,11.228837 -8.871397,6.19875 -8.15285,15.14848 -5.717448,20.04715 5.198598,10.05885 14.883496,13.38186 24.853393,19.28167 14.822078,8.53145 35.884947,16.62509 42.675669,25.72014 15.791505,-16.65345 45.158236,-23.32566 62.586246,-38.64515 0.22003,0.76992 7.61657,-8.73761 6.30908,-16.22683 -2.8032,-8.70316 -6.4885,-8.58183 -9.87069,-11.49526 -8.58328,-4.29522 -14.36121,-5.37003 -21.17928,-9.593537 -4.04217,-5.074127 -5.8491,-14.809223 -13.44761,-19.77564 -0.40322,-0.267546 -0.88484,-0.219739 -1.29067,-0.06307 2.43482,-7.382234 5.64576,-14.764524 5.98747,-22.146758 -5.70512,1.265794 -11.120713,0.504825 -16.617014,0.308846 12.400414,-1.234925 24.690504,-1.699115 37.295194,-4.363903 6.7805,-1.589156 24.47013,-6.0576 24.24843,-11.583736 0.0859,-8.697016 -29.38987,-9.863714 -43.24631,-11.090255 l 0.78903,8.793783 c -0.68575,4.205879 -7.41389,4.840995 -15.800885,5.495003 6.763765,-1.728489 13.690385,-2.951316 14.041835,-4.595536 l -1.88897,-22.315631 c -2.26691,2.135512 -5.25602,2.165607 -8.38316,2.293968 3.13705,-0.766989 8.69565,-2.44312 8.2313,-4.74541 C 107.65624,12.948 97.769595,10.603202 83.389301,10.617371 Z M 66.649073,59.018795 c 0.106846,0 0.191517,6.33e-4 0.250556,9.63e-4 4.414531,0.280507 8.92865,0.502206 9.011076,3.374437 -0.550647,3.59726 -7.937086,4.867607 -8.719108,4.842004 -5.30271,-0.263803 -8.692008,-4.466631 -8.73394,-5.600351 0.0087,-2.493432 6.588551,-2.617098 8.191387,-2.617126 z m 27.463849,0.03024 c 1.60287,2.9e-5 8.183068,0.123262 8.191418,2.616609 -0.0418,1.133749 -3.431258,5.336518 -8.733973,5.600378 -0.781997,0.02592 -8.16844,-1.244771 -8.719087,-4.842031 0.08236,-2.872203 4.596517,-3.093239 9.011083,-3.373919 0.05896,-4.32e-4 0.14371,-9.62e-4 0.250559,-9.62e-4 z M 80.465374,72.505372 c 3.201815,0.09676 5.644905,3.232311 11.62718,3.707301 4.521834,0.271003 7.442803,-0.141116 11.543336,-1.011467 C 97.355633,92.103029 88.231187,105.51134 80.296638,105.53429 72.28957,105.24917 61.753414,89.081904 57.462605,75.369972 c 3.538797,0.842556 7.583114,1.179627 11.121967,0.758318 4.52996,0.08064 8.879808,-3.498045 11.880802,-3.622918 z m 22.488876,8.202615 c -0.38398,2.863333 1.93969,7.608627 2.31287,9.773543 0.79461,6.438936 -0.65499,15.66394 -5.20355,23.72127 2.34198,-1.52539 4.52045,-4.70447 16.55256,-0.54207 6.62859,2.9873 11.29623,6.44144 15.5917,9.98424 -3.35165,-6.12234 -6.86344,-12.24455 -10.43877,-18.36689 5.11217,7.16449 9.47629,14.64942 13.81886,22.14375 -4.70259,-4.12632 -9.99942,-8.02134 -16.71622,-11.36439 -10.85036,-5.75305 -16.17655,-2.94369 -20.35547,1.64403 -15.174478,21.15593 -15.060459,26.21864 -18.118361,34.62029 -1.681401,-10.42813 -9.004107,-20.85661 -15.40353,-31.28471 -5.307001,-7.07353 -9.141799,-8.35191 -12.490871,-8.18426 -9.409056,0.42502 -19.473023,8.76641 -27.024109,14.39517 4.281161,-7.44862 9.431548,-15.08374 13.530997,-22.68321 -2.36327,4.7365 -4.76849,9.53336 -10.392284,18.92784 6.008355,-3.67398 3.386102,-4.2528 19.39518,-11.43188 4.631738,-1.08254 8.947666,-0.48144 12.864657,2.24791 C 50.35612,94.142668 58.802733,83.511878 58.073644,81.16515 c 5.724105,12.828711 12.443519,23.01843 21.012638,25.25734 -0.408492,0.69979 -0.01152,2.80849 0.712816,4.62932 -0.04493,2.15941 -2.592589,4.64166 -2.643218,7.75472 0.05789,3.06088 1.358357,3.98919 3.220533,4.11997 1.779954,-0.009 3.4473,-0.81211 3.496144,-4.28362 -0.0458,-2.67555 -2.659518,-5.02464 -2.701997,-7.61817 0.463066,-1.40669 0.941945,-2.48188 0.718949,-4.4984 5.667276,-1.46702 12.548124,-7.161407 21.064741,-25.818323 z M 80.465374,112.94891 c 0.401523,2.47748 1.723853,4.35259 1.895613,5.56101 0.391961,2.19102 -0.836308,3.0501 -2.064349,3.11724 -1.176949,-0.0654 -2.098476,-1.3003 -1.895583,-3.03337 0.297845,-2.13453 1.653207,-3.08905 2.064319,-5.64488 z"
       inkscape:export-filename="C:\_InhameLab\gitzorro.png"
       inkscape:export-xdpi="300"
       inkscape:export-ydpi="300" />
  </g>
</svg>
