<?xml version="1.0" encoding="UTF-8" standalone="no"?>
<!-- Created with Inkscape (http://www.inkscape.org/) -->

<svg
   width="700"
   height="500"
   viewBox="0 0 185.20833 132.29167"
   version="1.1"
   id="svg1018"
   inkscape:version="1.1.1 (3bf5ae0d25, 2021-09-20)"
   sodipodi:docname="zzorro.svg"
   xmlns:inkscape="http://www.inkscape.org/namespaces/inkscape"
   xmlns:sodipodi="http://sodipodi.sourceforge.net/DTD/sodipodi-0.dtd"
   xmlns="http://www.w3.org/2000/svg"
   xmlns:svg="http://www.w3.org/2000/svg">
  <sodipodi:namedview
     id="namedview1020"
     pagecolor="#ffffff"
     bordercolor="#666666"
     borderopacity="1.0"
     inkscape:pageshadow="2"
     inkscape:pageopacity="0.0"
     inkscape:pagecheckerboard="0"
     inkscape:document-units="mm"
     showgrid="false"
     units="px"
     inkscape:zoom="0.3884119"
     inkscape:cx="396.48631"
     inkscape:cy="559.97255"
     inkscape:window-width="2560"
     inkscape:window-height="1017"
     inkscape:window-x="1358"
     inkscape:window-y="-8"
     inkscape:window-maximized="1"
     inkscape:current-layer="layer1" />
  <defs
     id="defs1015" />
  <g
     inkscape:label="Camada 1"
     inkscape:groupmode="layer"
     id="layer1">
    <g
       id="g1296"
       transform="matrix(0.93110113,0.12989671,-0.12989671,0.93110113,36.085353,-109.5626)"
       style="fill:#000000">
      <path
         style="fill:#000000;fill-opacity:1;stroke-width:0.564362"
         d="m 3.028401,248.9958 c 0.367508,-0.18067 0.806615,-0.15855 0.975789,0.0493 0.169175,0.20789 -0.131514,0.35574 -0.668204,0.32859 -0.593074,-0.03 -0.713712,-0.17818 -0.307585,-0.37798 z m 21.256051,-0.64047 c -0.27628,-0.89163 -0.217803,-0.9635 0.285002,-0.35023 0.347932,0.42438 0.504358,0.92919 0.347605,1.1218 -0.156746,0.19263 -0.441421,-0.15451 -0.632607,-0.77157 z m 12.344893,-5.61568 c 0.367508,-0.18068 0.806607,-0.15855 0.975789,0.0492 0.169167,0.20788 -0.131522,0.35576 -0.668204,0.32859 -0.593082,-0.03 -0.713712,-0.17818 -0.307585,-0.37799 z m 21.38242,-0.62562 c 0.367508,-0.18069 0.806607,-0.15855 0.975782,0.0495 0.169174,0.20789 -0.131515,0.35574 -0.668197,0.32858 -0.593082,-0.03 -0.71372,-0.17818 -0.307585,-0.37797 z M 83.69944,239.6054 c 0.49535,-0.15855 1.18264,-0.14816 1.52732,0.0233 0.34468,0.17144 -0.0606,0.30115 -0.90062,0.28839 -0.84002,-0.0135 -1.12204,-0.15297 -0.6267,-0.31158 z m 10.96024,-0.65801 c 2.32337,-0.11622 5.98893,-0.11545 8.1457,0.002 2.15677,0.117 0.25583,0.21205 -4.2243,0.21126 -4.48013,-6.4e-4 -6.24475,-0.0966 -3.9214,-0.21268 z m 12.9677,0.0325 c 0.49534,-0.15855 1.18264,-0.14816 1.52732,0.0233 0.34468,0.17144 -0.0606,0.30116 -0.90061,0.2884 -0.84004,-0.0135 -1.12205,-0.15297 -0.62671,-0.31158 z m 7.91326,-1.87066 c 0.36752,-0.18068 0.80662,-0.15856 0.97579,0.0495 0.16913,0.20789 -0.13142,0.35574 -0.6682,0.32859 -0.59308,-0.03 -0.71371,-0.17837 -0.30759,-0.37799 z m -87.0888,-1.23822 c 0.35001,-0.17356 0.922754,-0.17356 1.272764,0 0.35001,0.17357 0.06363,0.31555 -0.636382,0.31555 -0.700019,0 -0.986392,-0.142 -0.636382,-0.31555 z m 93.9396,-0.0192 c 0.49534,-0.15855 1.18264,-0.14816 1.52732,0.0233 0.34468,0.17144 -0.0606,0.30115 -0.90063,0.28839 -0.84002,-0.0135 -1.12203,-0.15297 -0.62669,-0.31158 z m -84.234781,-1.24506 c 0.367507,-0.18068 0.806614,-0.15855 0.975789,0.0492 0.169174,0.20789 -0.131522,0.35576 -0.668197,0.32859 -0.593089,-0.03 -0.71372,-0.17818 -0.307592,-0.37796 z m 5.31379,-2.50636 c 0.49001,-0.1574 1.291852,-0.1574 1.781863,0 0.490018,0.1574 0.08909,0.28611 -0.890932,0.28611 -0.980028,0 -1.380949,-0.12873 -0.890931,-0.28611 z m 103.093791,-1.2343 c 0.35001,-0.17356 0.92276,-0.17356 1.27277,0 0.35001,0.17356 0.0637,0.31555 -0.63639,0.31555 -0.70001,0 -0.98639,-0.14201 -0.63638,-0.31555 z m -25.57893,-0.82975 c -0.17837,-0.35462 0.0259,-0.45951 0.47906,-0.24586 0.88198,0.41591 1.04335,0.86431 0.31104,0.86431 -0.26348,0 -0.61902,-0.27828 -0.7901,-0.61845 z m 29.68359,0.19108 c 0.36751,-0.18068 0.80661,-0.15855 0.97579,0.0495 0.16913,0.20787 -0.13161,0.35575 -0.66819,0.32858 -0.59309,-0.03 -0.71372,-0.17818 -0.3076,-0.37797 z m -94.184456,-0.62561 c 0.367508,-0.18068 0.806615,-0.15855 0.975789,0.0493 0.169175,0.20788 -0.131514,0.35575 -0.668197,0.32859 -0.593089,-0.03 -0.713719,-0.17818 -0.307592,-0.37797 z m 56.510686,0 c 0.36749,-0.18068 0.80661,-0.15855 0.97578,0.0493 0.16914,0.20788 -0.13161,0.35575 -0.6682,0.32859 -0.59309,-0.03 -0.71372,-0.17818 -0.30758,-0.37797 z m 13.20491,0.0135 c 0.35001,-0.17355 0.92276,-0.17355 1.27277,0 0.35001,0.17357 0.0637,0.31557 -0.63638,0.31557 -0.70004,0 -0.9864,-0.142 -0.63639,-0.31557 z m 33.63275,-1.88986 c 0.36752,-0.18069 0.80661,-0.15855 0.97579,0.0495 0.16913,0.20789 -0.13143,0.35574 -0.66819,0.32859 -0.59309,-0.03 -0.71371,-0.17818 -0.3076,-0.37798 z m -20.77784,-0.82386 c 0,-0.34408 0.24262,-0.62561 0.53916,-0.62561 0.29651,0 0.39755,0.28153 0.22449,0.62561 -0.17299,0.34408 -0.41568,0.62563 -0.53916,0.62563 -0.12353,0 -0.22449,-0.28155 -0.22449,-0.62563 z m 2.29456,0.008 c -0.17837,-0.35464 0.026,-0.45951 0.47906,-0.24587 0.88199,0.41589 1.04337,0.86432 0.31105,0.86432 -0.26348,0 -0.61903,-0.27831 -0.79011,-0.61845 z m 21.53791,0.19107 c 0.36752,-0.18068 0.80662,-0.15855 0.97579,0.0495 0.16914,0.20788 -0.13161,0.35574 -0.66819,0.32859 -0.59309,-0.03 -0.71372,-0.17837 -0.3076,-0.37798 z m -27.77105,-0.64717 c 0.77389,-0.14374 1.91937,-0.1399 2.54553,0.008 0.62617,0.14854 -0.008,0.26614 -1.40703,0.26145 -1.40005,-0.006 -1.91236,-0.12623 -1.1385,-0.27 z m -33.35338,-1.21663 c 0.35001,-0.17355 0.92276,-0.17355 1.27277,0 0.35,0.17356 0.0637,0.31557 -0.63639,0.31557 -0.70001,0 -0.98638,-0.14201 -0.63638,-0.31557 z m 42.79188,-0.3154 c 0.5622,-0.88351 0.52337,-1.08718 -0.25455,-1.33506 -0.72394,-0.23069 -0.67586,-0.30785 0.22751,-0.36509 1.37111,-0.0868 1.47809,0.70493 0.25455,1.88408 -0.79772,0.7688 -0.82153,0.74956 -0.22751,-0.18396 z m -7.39939,-0.3294 c 0.49536,-0.15856 1.18264,-0.14816 1.52731,0.0233 0.3447,0.17144 -0.0606,0.30115 -0.90061,0.28839 -0.84001,-0.0135 -1.12204,-0.15297 -0.6267,-0.31158 z m 13.00432,0.006 c 0.36752,-0.18069 0.80661,-0.15855 0.97579,0.0495 0.16914,0.20789 -0.13161,0.35574 -0.66821,0.32859 -0.59307,-0.03 -0.71372,-0.17818 -0.30758,-0.37798 z m -9.19572,-0.61266 c 0.35003,-0.17356 0.92275,-0.17356 1.27276,0 0.35001,0.17356 0.0637,0.31554 -0.63638,0.31554 -0.70002,0 -0.98639,-0.142 -0.63638,-0.31554 z m 12.47309,-0.0174 c 0.49001,-0.1574 1.29185,-0.1574 1.78187,0 0.49001,0.15741 0.0891,0.28611 -0.89094,0.28611 -0.98004,0 -1.38096,-0.12873 -0.89093,-0.28611 z m 5.86064,-0.0116 c 0.63328,-0.1497 1.54968,-0.14393 2.03641,0.0135 0.48676,0.15662 -0.0313,0.27902 -1.15142,0.27208 -1.12002,-0.008 -1.51827,-0.13508 -0.88499,-0.28471 z m 5.62604,-1.23614 c 0.3675,-0.18068 0.80662,-0.15854 0.97579,0.0492 0.16914,0.20788 -0.13161,0.35576 -0.6682,0.32859 -0.59309,-0.03 -0.71372,-0.17818 -0.30759,-0.37796 z m 24.02339,-2.07508 c 0,-0.34409 0.24263,-0.62561 0.53916,-0.62561 0.29653,0 0.39757,0.28152 0.22451,0.62561 -0.17298,0.34409 -0.41568,0.62562 -0.53915,0.62562 -0.12354,0 -0.22452,-0.28153 -0.22452,-0.62562 z m -148.149594,-9.6975 c 0.657633,-0.86022 1.310249,-1.56402 1.45025,-1.56402 0.140001,0 -0.28351,0.7038 -0.94115,1.56402 -0.657633,0.86023 -1.31025,1.56403 -1.45025,1.56403 -0.140001,0 0.28351,-0.7038 0.94115,-1.56403 z m 5.600155,0.70221 c 0,-0.12987 0.400921,-0.62256 0.890932,-1.09481 0.807474,-0.7782 0.825482,-0.75607 0.192229,0.23621 -0.665084,1.04211 -1.083153,1.37352 -1.083153,0.8586 z m 4.446187,-6.72319 c 0.345344,-0.42755 0.756137,-0.61977 0.91289,-0.42715 0.156745,0.19262 -0.125806,0.54246 -0.627896,0.77738 -0.725577,0.33951 -0.784054,0.26765 -0.284994,-0.35023 z m 2.968567,-1.35698 c 0.191186,-0.61699 0.475853,-0.9642 0.632607,-0.77158 0.156738,0.19261 3.27e-4,0.69742 -0.347613,1.1218 -0.502797,0.61327 -0.561274,0.54142 -0.284994,-0.35022 z m -4.869226,-5.68334 c 0,-0.12989 0.400921,-0.62259 0.890931,-1.09482 0.807475,-0.7782 0.825483,-0.75607 0.192229,0.23619 -0.665084,1.04211 -1.083153,1.37353 -1.083153,0.85863 z m 10.945759,-1.01503 c 0.506809,-0.68818 1.036017,-1.25124 1.176018,-1.25124 0.140008,0 -0.16011,0.56306 -0.666911,1.25124 -0.506808,0.68819 -1.036024,1.25123 -1.176025,1.25123 -0.140001,0 0.16011,-0.56304 0.666918,-1.25123 z m 2.290971,-8.32876 c 0,-0.10756 0.744568,-1.02262 1.654596,-2.03324 l 1.654588,-1.83749 -1.495285,2.03324 c -1.393821,1.89527 -1.813899,2.32082 -1.813899,1.83749 z m -0.5091,-8.79906 c 0,-0.12987 0.400914,-0.62258 0.890932,-1.09481 0.807467,-0.77819 0.825475,-0.75607 0.192221,0.23619 -0.665076,1.04212 -1.083145,1.37354 -1.083145,0.85862 z m 8.697207,0.0593 c 0.11668,-0.0974 0.670328,-0.59004 1.230339,-1.09483 0.941851,-0.84897 0.965811,-0.83569 0.319496,0.17702 -0.384298,0.60216 -0.937946,1.09482 -1.230339,1.09482 -0.292392,0 -0.436161,-0.0797 -0.319496,-0.17703 z M 76.435,176.61556 c 0,-0.12987 0.40092,-0.62257 0.89094,-1.0948 0.80747,-0.77821 0.82548,-0.75608 0.19222,0.23619 -0.66507,1.04213 -1.08315,1.37353 -1.08315,0.85861 z m 8.48509,-2.78759 c 0.13425,-0.63084 0.57194,-1.14695 0.97266,-1.14695 0.58984,0 0.56772,0.21842 -0.11608,1.14695 -0.46458,0.63083 -0.90228,1.14697 -0.97266,1.14697 -0.0704,0 -0.0181,-0.51614 0.11608,-1.14697 z m 2.61977,-1.78286 c 0.36751,-0.18068 0.80662,-0.15856 0.97579,0.0495 0.16917,0.20788 -0.13151,0.35575 -0.6682,0.32858 -0.59309,-0.03 -0.71372,-0.17817 -0.30759,-0.37796 z M 26.542702,150.88873 c 0.949873,-1.20432 1.841596,-2.18966 1.981604,-2.18966 0.140001,0 -0.522624,0.98534 -1.472505,2.18966 -0.949873,1.2043 -1.841596,2.18963 -1.981604,2.18963 -0.140001,0 0.522624,-0.98533 1.472505,-2.18963 z m 92.402588,-7.19458 c 0.50682,-0.68818 1.03602,-1.25123 1.17603,-1.25123 0.14008,0 -0.1601,0.56305 -0.66693,1.25123 -0.50681,0.68816 -1.03601,1.25122 -1.17601,1.25122 -0.14008,0 0.16009,-0.56306 0.66691,-1.25122 z m -64.529081,0.18415 c 0.630018,-0.14913 1.660951,-0.14913 2.29097,0 0.630019,0.14912 0.114549,0.27113 -1.145482,0.27113 -1.260037,0 -1.775507,-0.12199 -1.145488,-0.27113 z m 66.820051,-2.29714 c 0,-0.12988 0.40093,-0.62259 0.89094,-1.09482 0.80748,-0.7782 0.82546,-0.75607 0.19222,0.23619 -0.66509,1.04212 -1.08316,1.37354 -1.08316,0.85863 z m -36.01919,-3.33995 c 0.77002,-0.14335 2.03006,-0.14335 2.80007,0 0.77003,0.14335 0.14001,0.26063 -1.40003,0.26063 -1.54004,0 -2.17006,-0.11737 -1.40004,-0.26063 z m 45.69218,-1.99277 c 0,-0.64967 0.96844,-1.59015 1.2553,-1.21907 0.0931,0.12046 -0.15124,0.58207 -0.54299,1.02574 -0.39176,0.44368 -0.71231,0.53067 -0.71231,0.19333 z m -79.929501,-1.54902 c 0,-0.12989 0.400921,-0.62259 0.890932,-1.09484 0.807474,-0.77818 0.825475,-0.75605 0.192229,0.23621 -0.665084,1.04212 -1.083153,1.37352 -1.083153,0.85863 z m -5.600162,-1.64066 c 0,-0.34408 0.242623,-0.6256 0.539156,-0.6256 0.296533,0 0.397565,0.28152 0.224501,0.6256 -0.173057,0.34411 -0.415672,0.62563 -0.539149,0.62563 -0.123477,0 -0.224508,-0.28152 -0.224508,-0.62563 z m 64.910913,-1.25123 c 0.17298,-0.34408 0.54373,-0.62561 0.82374,-0.62561 0.28001,0 0.36752,0.28153 0.19448,0.62561 -0.17298,0.3441 -0.54375,0.62563 -0.82376,0.62563 -0.28001,0 -0.36752,-0.28153 -0.19446,-0.62563 z m -15.0186,-2.50245 c -0.45886,-0.3644 -0.52165,-0.61027 -0.1574,-0.61604 0.33348,-0.006 0.74793,0.27196 0.92098,0.61604 0.39063,0.77671 0.2144,0.77671 -0.76366,0 z m 2.95917,0.19825 c 0.36752,-0.18068 0.80661,-0.15855 0.97579,0.0495 0.16914,0.20789 -0.13142,0.35574 -0.66821,0.32859 -0.59307,-0.03 -0.7137,-0.17818 -0.30758,-0.37798 z m -27.905329,-0.43811 c 0,-0.132 0.565811,-0.37279 1.257359,-0.53526 0.69154,-0.1624 1.136226,-0.0544 0.988165,0.23987 -0.2607,0.51837 -2.245524,0.77945 -2.245524,0.29539 z m 13.571909,-0.54217 c 0.30726,-0.61604 1.78455,-0.58359 2.60632,0.0573 0.40092,0.31264 -0.0192,0.48901 -1.09492,0.45963 -0.95999,-0.0262 -1.64012,-0.2588 -1.5114,-0.51688 z m 7.55956,0.16356 c -0.17835,-0.35464 0.026,-0.45951 0.47906,-0.24587 0.882,0.41589 1.04335,0.86432 0.31104,0.86432 -0.26348,0 -0.61903,-0.27831 -0.7901,-0.61845 z m -18.2126,-1.96164 c 0.34535,-0.42755 0.75615,-0.61977 0.91289,-0.42716 0.15675,0.19262 -0.1258,0.54244 -0.62789,0.77738 -0.725579,0.3395 -0.784056,0.26765 -0.285,-0.35022 z m 34.75491,-0.54798 c -1.18481,-0.46629 -1.19569,-0.5052 -0.1574,-0.56325 0.61351,-0.0343 1.25703,0.21917 1.43009,0.56325 0.17298,0.34408 0.24385,0.59755 0.1574,0.56324 -0.0866,-0.0342 -0.73006,-0.28776 -1.43009,-0.56324 z m -15.87771,-0.42737 c 0.36751,-0.18067 0.80661,-0.15855 0.97579,0.0495 0.16913,0.20789 -0.13143,0.35574 -0.66821,0.32857 -0.59308,-0.03 -0.71371,-0.17818 -0.30758,-0.37796 z m 20.22685,-0.15508 c -0.16105,-0.3203 -0.0983,-0.73021 0.1397,-0.91091 0.2379,-0.18068 0.43255,0.0814 0.43255,0.58239 0,1.05489 -0.16047,1.14706 -0.57221,0.32852 z m 0.64647,-2.97305 c 0.36749,-0.18068 0.80661,-0.15855 0.97578,0.0495 0.16914,0.20789 -0.13161,0.35575 -0.6682,0.32858 -0.59309,-0.03 -0.71372,-0.17818 -0.30758,-0.37797 z m 1.22087,-2.451 c -0.36105,-0.48142 -0.43185,-0.87533 -0.1574,-0.87533 0.52867,0 1.29399,1.19005 0.99203,1.54256 -0.0981,0.11449 -0.47366,-0.18587 -0.83471,-0.66723 z m 44.40953,-4.33611 c 0.92302,-0.85792 0.56603,-1.26949 -0.86098,-0.9926 -0.21001,0.0408 -0.38181,-0.17761 -0.38181,-0.48536 0,-0.30767 0.544,-0.51884 1.2089,-0.46921 0.78006,0.0583 1.15508,0.42314 1.05718,1.02865 -0.0835,0.51614 -0.16933,1.14957 -0.19069,1.40762 -0.0214,0.25808 -0.43986,0.46027 -0.92987,0.44932 -0.80616,-0.0174 -0.7969,-0.10737 0.0974,-0.93842 z m -19.57058,-6.15956 c 0,-0.12988 0.40092,-0.62259 0.89093,-1.09484 0.80746,-0.77817 0.82547,-0.75605 0.19222,0.23621 -0.66507,1.04212 -1.08313,1.37352 -1.08313,0.85863 z m 2.98969,-1.48425 c -0.63327,-0.99226 -0.61525,-1.01439 0.19223,-0.2362 0.84804,0.81728 1.11773,1.33103 0.69872,1.33103 -0.10563,0 -0.50664,-0.49268 -0.89093,-1.09483 z m 19.69821,-6.59593 c 0.19126,-0.61701 0.47586,-0.96422 0.6326,-0.77159 0.15683,0.19261 3.3e-4,0.69743 -0.3476,1.12179 -0.50281,0.61328 -0.56128,0.54143 -0.285,-0.3502 z"
         id="path1044" />
      <path
         style="fill:#000000;fill-opacity:1;stroke-width:0.564362"
         d="m 1.08744,246.65193 c 0,-0.17202 0.458196,-0.61416 1.018215,-0.98245 0.56001,-0.36831 1.018206,-0.52887 1.018206,-0.35684 0,0.17202 -0.458196,0.61414 -1.018206,0.98245 -0.560019,0.36831 -1.018215,0.52888 -1.018215,0.35684 z m 31.978171,-2.66105 c 0.367508,-0.18067 0.806607,-0.15854 0.975781,0.0495 0.169175,0.20788 -0.131514,0.35574 -0.668196,0.32859 -0.593082,-0.03 -0.713712,-0.17818 -0.307585,-0.37799 z m 29.623555,-0.78694 c 0,-0.32378 0.226472,-0.76071 0.503277,-0.97092 0.288587,-0.21919 0.373939,0.032 0.200083,0.5887 -0.338448,1.08381 -0.70336,1.28212 -0.70336,0.38222 z m 4.581948,-0.2828 c 0,-0.13527 0.355543,-0.41352 0.790098,-0.61845 0.453066,-0.21364 0.65742,-0.10872 0.479058,0.24588 -0.298976,0.59445 -1.269156,0.87927 -1.269156,0.37257 z m -25.582536,-0.79407 c 0.350009,-0.17356 0.922754,-0.17356 1.272764,0 0.350009,0.17356 0.06363,0.31555 -0.636382,0.31555 -0.70002,0 -0.986392,-0.14201 -0.636382,-0.31555 z m 3.563734,-0.62563 c 0.35001,-0.17355 0.922754,-0.17355 1.272764,0 0.350009,0.17356 0.06363,0.31557 -0.636382,0.31557 -0.700019,0 -0.986392,-0.14201 -0.636382,-0.31557 z m 8.654789,0 c 0.35001,-0.17355 0.922755,-0.17355 1.272764,0 0.35001,0.17356 0.06363,0.31557 -0.636382,0.31557 -0.700019,0 -0.986391,-0.14201 -0.636382,-0.31557 z m 33.600949,-2.52963 c 0.63001,-0.14913 1.66095,-0.14913 2.29097,0 0.63001,0.14912 0.11454,0.27111 -1.14549,0.27111 -1.26003,0 -1.7755,-0.12199 -1.14548,-0.27111 z m -52.406019,-3.73955 c 0.367508,-0.18067 0.806607,-0.15855 0.975782,0.0495 0.169175,0.20787 -0.131514,0.35574 -0.668197,0.32857 -0.593082,-0.03 -0.713719,-0.17818 -0.307585,-0.37796 z m -6.013809,-1.38213 c 0,-0.42174 -0.26449,-0.56592 -0.587761,-0.32041 -0.378887,0.28775 -0.448926,0.17028 -0.197093,-0.33038 0.277596,-0.55195 0.548419,-0.58296 0.935655,-0.10719 0.299738,0.36835 0.388431,0.8621 0.197093,1.09721 -0.191346,0.23513 -0.347894,0.0825 -0.347894,-0.33931 z m 11.751841,0.38123 c 0.116688,-0.0974 0.670328,-0.59003 1.230347,-1.09482 0.941851,-0.84896 0.965803,-0.83569 0.319489,0.17703 -0.384299,0.60215 -0.937947,1.09484 -1.230339,1.09484 -0.292385,0 -0.436161,-0.0797 -0.319497,-0.17702 z m 8.516913,-2.75278 c 0.367508,-0.18068 0.806607,-0.15855 0.975789,0.0495 0.169167,0.20788 -0.131522,0.35575 -0.668205,0.32859 -0.593081,-0.03 -0.713712,-0.17818 -0.307584,-0.37797 z m 93.675344,0 c 0.36752,-0.18068 0.80661,-0.15855 0.97579,0.0495 0.16913,0.20788 -0.13162,0.35575 -0.66819,0.32859 -0.59309,-0.03 -0.71372,-0.17818 -0.3076,-0.37797 z m -39.10563,-2.07509 c -1.18483,-0.46629 -1.19571,-0.50521 -0.1574,-0.56327 0.61349,-0.0342 1.25703,0.21917 1.43009,0.56327 0.17298,0.34408 0.24385,0.59753 0.1574,0.56325 -0.0866,-0.0343 -0.73008,-0.28777 -1.43009,-0.56325 z m -28.38262,-0.43127 c 0.49001,-0.1574 1.29185,-0.1574 1.78187,0 0.49001,0.1574 0.0891,0.28613 -0.89094,0.28613 -0.98002,0 -1.38094,-0.12873 -0.89093,-0.28613 z m 56.25611,0.0174 c 0.35003,-0.17356 0.92277,-0.17356 1.27277,0 0.35001,0.17356 0.0637,0.31557 -0.63638,0.31557 -0.70002,0 -0.9864,-0.14201 -0.63639,-0.31557 z m -39.16926,-4.39234 c 0.3675,-0.18068 0.80662,-0.15855 0.97578,0.0495 0.16913,0.20789 -0.13143,0.35575 -0.66819,0.32858 -0.59309,-0.03 -0.71372,-0.17818 -0.30759,-0.37797 z m 46.83767,0 c 0.36752,-0.18068 0.80661,-0.15855 0.97579,0.0495 0.16914,0.20789 -0.13161,0.35575 -0.66821,0.32858 -0.59307,-0.03 -0.71372,-0.17818 -0.30758,-0.37797 z m -43.78305,-0.62561 c 0.36752,-0.18068 0.80663,-0.15855 0.97578,0.0495 0.16914,0.20788 -0.13142,0.35576 -0.66818,0.32859 -0.59309,-0.03 -0.71372,-0.17818 -0.3076,-0.37797 z m -60.709878,-3.50971 c 0.191187,-0.61699 0.475862,-0.96421 0.632607,-0.77158 0.156746,0.19261 3.27e-4,0.69742 -0.347604,1.12179 -0.502805,0.61328 -0.561282,0.54141 -0.285003,-0.35021 z m 7.858405,-5.68339 c 0,-0.12988 0.400921,-0.62259 0.890931,-1.09482 0.807475,-0.77819 0.825476,-0.75607 0.192229,0.23622 -0.665083,1.04211 -1.083153,1.37351 -1.083153,0.8586 z m 8.909339,-9.77363 c 0.173056,-0.34409 0.415672,-0.62563 0.539149,-0.62563 0.123476,0 0.224508,0.28154 0.224508,0.62563 0,0.34408 -0.242623,0.62561 -0.539156,0.62561 -0.296526,0 -0.397557,-0.28153 -0.224501,-0.62561 z m 2.524589,-2.54409 c -0.522373,-1.03865 -0.05351,-1.18267 0.677391,-0.20807 0.361046,0.48142 0.431846,0.87532 0.157317,0.87532 -0.274514,0 -0.650136,-0.30026 -0.834708,-0.66725 z m -7.615644,-1.20959 c 0.506808,-0.68818 1.036024,-1.25124 1.176025,-1.25124 0.140001,0 -0.16011,0.56306 -0.666918,1.25124 -0.506809,0.68816 -1.036017,1.25122 -1.176025,1.25122 -0.140001,0 0.160117,-0.56306 0.666918,-1.25122 z m 12.982188,-6.49236 c 0,-0.12989 0.400913,-0.62259 0.890931,-1.09482 0.807467,-0.7782 0.825475,-0.75607 0.192222,0.23619 -0.665076,1.04213 -1.083153,1.37353 -1.083153,0.85863 z m 8.436735,-13.37092 c 0.253416,-0.25807 0.631739,-0.75074 0.840713,-1.09484 0.216829,-0.35701 0.383301,-0.15547 0.387754,0.46921 0.0046,0.6086 -0.369046,1.09484 -0.840721,1.09484 -0.466674,0 -0.641161,-0.21114 -0.387746,-0.46921 z m 5.818206,-4.77192 c 0,-0.12988 0.40092,-0.62259 0.89093,-1.09482 0.80748,-0.77819 0.82548,-0.75607 0.19223,0.23619 -0.66508,1.04214 -1.08315,1.37354 -1.08315,0.85863 z m 20.10965,-9.14802 c 1.09368,-1.37635 2.10307,-2.50245 2.24307,-2.50245 0.14008,0 -0.64029,1.1261 -1.73395,2.50245 -1.09368,1.37636 -2.10308,2.50247 -2.24308,2.50247 -0.14,0 0.64027,-1.12611 1.73396,-2.50247 z m 11.20033,-14.38916 c -0.17298,-0.34408 -0.0856,-0.6256 0.19446,-0.6256 0.28,0 0.65067,0.28152 0.82374,0.6256 0.17298,0.34411 0.0856,0.62563 -0.19446,0.62563 -0.28001,0 -0.6507,-0.28152 -0.82374,-0.62563 z m 2.80006,-0.6256 c -0.42001,-0.33355 -0.53455,-0.60646 -0.25455,-0.60646 0.28001,0 0.85276,0.27291 1.27276,0.60646 0.42001,0.33355 0.53456,0.60644 0.25455,0.60644 -0.28,0 -0.85275,-0.27289 -1.27276,-0.60644 z m 5.60016,-3.98989 c 0,-0.12989 0.40092,-0.62259 0.89093,-1.09483 0.80748,-0.77819 0.82548,-0.75606 0.19223,0.2362 -0.66509,1.04211 -1.08316,1.37353 -1.08316,0.85863 z m -63.733597,-3.9449 c 0.367508,-0.18068 0.806607,-0.15855 0.975781,0.0495 0.169175,0.20789 -0.131514,0.35575 -0.668197,0.32859 -0.593081,-0.03 -0.713719,-0.17837 -0.307584,-0.37798 z m 14.859503,-0.78695 c 0,-0.32378 0.22648,-0.76068 0.503277,-0.9709 0.288587,-0.21918 0.37394,0.032 0.200084,0.58868 -0.338448,1.08383 -0.703361,1.28214 -0.703361,0.38222 z m 3.468282,-2.34113 c 0.367508,-0.18067 0.806615,-0.15855 0.975782,0.0495 0.169174,0.2079 -0.131515,0.35577 -0.668197,0.3286 -0.593082,-0.03 -0.713712,-0.17818 -0.307585,-0.37798 z m 60.428022,-1.4423 c -0.17838,-0.35465 0.0259,-0.45954 0.47906,-0.24588 0.88199,0.4159 1.04334,0.86433 0.31105,0.86433 -0.26348,0 -0.61903,-0.27831 -0.79011,-0.61845 z m -49.22771,-1.06015 c 0.36751,-0.18068 0.80662,-0.15855 0.97579,0.0495 0.16917,0.20788 -0.13152,0.35574 -0.66821,0.32857 -0.59308,-0.03 -0.71371,-0.17818 -0.30758,-0.37796 z m 43.3694,0.19108 c 0,-0.12989 0.40092,-0.62257 0.89093,-1.09483 0.80748,-0.77817 0.82547,-0.75604 0.19222,0.23622 -0.66509,1.04211 -1.08315,1.37351 -1.08315,0.85861 z m -33.1873,-0.81678 c 0.36751,-0.18068 0.80662,-0.15856 0.97579,0.0495 0.16917,0.20789 -0.13151,0.35577 -0.6682,0.32859 -0.59308,-0.03 -0.71372,-0.17836 -0.30759,-0.37798 z m 17.91414,-5.20317 c -0.45886,-0.3644 -0.52164,-0.61027 -0.15739,-0.61602 0.33347,-0.006 0.74792,0.27194 0.92098,0.61602 0.39063,0.77672 0.21439,0.77672 -0.76367,0 z m -16.80047,-4.11861 c -0.85598,-0.58367 -1.00143,-0.87087 -0.44416,-0.87709 0.45572,-0.006 1.11379,0.41308 1.46237,0.92921 0.74344,1.10078 0.66684,1.09687 -1.01821,-0.0521 z m 6.01381,0.56317 c 0.36751,-0.18067 0.80661,-0.15855 0.97578,0.0495 0.16913,0.20789 -0.13142,0.35574 -0.66821,0.32859 -0.59307,-0.03 -0.71369,-0.17818 -0.30757,-0.37798 z m 37.00558,-0.82385 c 0.50681,-0.68818 1.03601,-1.25123 1.17602,-1.25123 0.14007,0 -0.1601,0.56305 -0.66691,1.25123 -0.50681,0.68816 -1.03603,1.25122 -1.17604,1.25122 -0.14008,0 0.1601,-0.56306 0.66693,-1.25122 z m -46.58313,0.37974 c 0,-0.13528 0.35555,-0.41355 0.79011,-0.61845 0.45306,-0.21365 0.65741,-0.10872 0.47905,0.24587 -0.29898,0.59445 -1.26916,0.87927 -1.26916,0.37258 z m -3.30918,-3.50782 c -0.17306,-0.3441 -0.072,-0.62562 0.22451,-0.62562 0.29653,0 0.53915,0.28152 0.53915,0.62562 0,0.34408 -0.10102,0.62561 -0.22451,0.62561 -0.12347,0 -0.36609,-0.28153 -0.53915,-0.62561 z m 73.56571,-9.93352 c 0,-0.30196 0.35335,-0.90939 0.78522,-1.34985 0.61671,-0.62896 0.91719,-0.63744 1.40004,-0.0394 0.48162,0.59638 0.4218,0.671 -0.27613,0.34449 -0.61961,-0.28988 -0.89094,-0.11064 -0.89094,0.58855 0,0.55294 -0.22909,1.00536 -0.50909,1.00536 -0.28001,0 -0.5091,-0.24707 -0.5091,-0.54901 z m 3.93708,-7.66163 c 0.34532,-0.42756 0.75614,-0.61978 0.91288,-0.42715 0.15682,0.19261 -0.12584,0.54244 -0.6279,0.77737 -0.72557,0.33952 -0.78404,0.26765 -0.28498,-0.35022 z m 7.26323,-5.16349 c 0,-0.12989 0.40092,-0.62259 0.89093,-1.09482 0.80748,-0.77818 0.82546,-0.75605 0.19222,0.23621 -0.66509,1.04211 -1.08315,1.37352 -1.08315,0.85861 z"
         id="path1042" />
      <path
         style="fill:#000000;fill-opacity:1;stroke-width:0.564362"
         d="m 29.501877,243.99088 c 0.367508,-0.18067 0.806607,-0.15854 0.975781,0.0495 0.169175,0.20788 -0.131514,0.35574 -0.668197,0.32859 -0.593081,-0.03 -0.713719,-0.17818 -0.307584,-0.37799 z m 51.928723,-4.3793 c 0.36751,-0.18069 0.80662,-0.15856 0.97579,0.0495 0.16917,0.20789 -0.13152,0.35576 -0.6682,0.32859 -0.59309,-0.03 -0.71372,-0.17818 -0.30759,-0.37796 z m -50.168994,-3.75989 c 0.495346,-0.15854 1.18264,-0.14816 1.527322,0.0233 0.344674,0.17145 -0.06059,0.30116 -0.900629,0.2884 -0.84002,-0.0135 -1.122031,-0.15297 -0.626693,-0.31158 z m 5.367739,-0.61943 c 0.367508,-0.18067 0.806607,-0.15855 0.975789,0.0495 0.169167,0.20787 -0.131522,0.35574 -0.668204,0.32857 -0.593082,-0.03 -0.713712,-0.17818 -0.307585,-0.37796 z m 21.859705,-5.6175 c 0.350009,-0.17356 0.922754,-0.17356 1.272764,0 0.350009,0.17357 0.06363,0.31555 -0.636382,0.31555 -0.70002,0 -0.986392,-0.142 -0.636382,-0.31555 z m 75.24847,-3.3954 c 0.32398,-0.64418 2.76499,-1.08945 3.03453,-0.55353 0.13103,0.26061 -0.54562,0.58632 -1.50377,0.72378 -0.95814,0.13739 -1.64697,0.0608 -1.53076,-0.17029 z m 10.18666,-1.37858 c 0.19126,-0.61699 0.47584,-0.9642 0.63259,-0.77157 0.15682,0.19261 3.3e-4,0.69742 -0.34761,1.1218 -0.5028,0.61327 -0.56128,0.5414 -0.28498,-0.35023 z M 54.034376,204.4158 c 0,-0.32378 0.22648,-0.76069 0.503277,-0.9709 0.288595,-0.21918 0.37394,0.032 0.200084,0.58868 -0.338448,1.08383 -0.703361,1.28213 -0.703361,0.38222 z m -1.527313,-3.4012 c 0,-0.12988 0.400921,-0.62259 0.890931,-1.09483 0.807475,-0.77818 0.825483,-0.75605 0.192229,0.2362 -0.665083,1.04213 -1.083153,1.37354 -1.083153,0.85863 z M 28.070015,149.71417 c 0,-0.12988 0.400922,-0.62259 0.890932,-1.09483 0.807475,-0.77818 0.825475,-0.75606 0.192229,0.2362 -0.665084,1.04213 -1.083153,1.37353 -1.083153,0.85863 z m 32.48727,-5.19609 c 0.367508,-0.18067 0.806615,-0.15855 0.975789,0.0495 0.169175,0.20789 -0.131514,0.35575 -0.668196,0.32859 -0.593082,-0.03 -0.71372,-0.17837 -0.307593,-0.37798 z m 16.005005,-5.63441 c 0.49001,-0.15739 1.29185,-0.15739 1.78186,0 0.49002,0.1574 0.0891,0.28611 -0.89093,0.28611 -0.98003,0 -1.38095,-0.12873 -0.89093,-0.28611 z m 27.18029,-1.7584 c 0.16125,-0.51613 0.52567,-0.93843 0.81001,-0.93843 0.29799,0 0.2485,0.39752 -0.1168,0.93843 -0.34858,0.51613 -0.71308,0.93841 -0.81002,0.93841 -0.097,0 -0.0442,-0.42228 0.1168,-0.93841 z m 21.43924,-1.35276 c 0.35001,-0.17356 0.92276,-0.17356 1.27277,0 0.35001,0.17356 0.0637,0.31554 -0.63639,0.31554 -0.70001,0 -0.98639,-0.142 -0.63638,-0.31554 z m -24.1728,-1.27044 c 0.49534,-0.15855 1.18264,-0.14816 1.52732,0.0231 0.34468,0.17145 -0.0606,0.30116 -0.90063,0.28842 -0.84002,-0.0135 -1.12203,-0.15297 -0.62669,-0.31158 z m 29.76448,-2.14655 c 0.34534,-0.42756 0.75614,-0.61978 0.91289,-0.42715 0.15682,0.19261 -0.12585,0.54243 -0.6279,0.77737 -0.72557,0.33952 -0.78404,0.26765 -0.28499,-0.35022 z m -67.702502,-4.09038 c 0.35001,-0.17356 0.922747,-0.17356 1.272756,0 0.35001,0.17356 0.06363,0.31555 -0.636374,0.31555 -0.700027,0 -0.986392,-0.14201 -0.636382,-0.31555 z m 48.364992,-5.00492 c 0.35001,-0.17356 0.92275,-0.17356 1.27276,0 0.35001,0.17356 0.0637,0.31555 -0.63638,0.31555 -0.70002,0 -0.98639,-0.14201 -0.63638,-0.31555 z m 53.72029,-22.54137 c 0.49533,-0.15855 1.18263,-0.14816 1.52731,0.0231 0.34468,0.17145 -0.0606,0.30116 -0.90063,0.2884 -0.84002,-0.0135 -1.12202,-0.15297 -0.62668,-0.31158 z"
         id="path1040" />
      <path
         style="fill:#000000;fill-opacity:1;stroke-width:0.564362"
         d="m 50.852467,240.87584 c 0.350017,-0.17357 0.922754,-0.17357 1.272771,0 0.35001,0.17356 0.06363,0.31555 -0.636389,0.31555 -0.70002,0 -0.986392,-0.14201 -0.636382,-0.31555 z m 59.088023,-2.5155 c 0.3675,-0.18068 0.80662,-0.15855 0.97579,0.0495 0.16914,0.20789 -0.13161,0.35576 -0.66821,0.32859 -0.59309,-0.03 -0.71371,-0.17818 -0.30758,-0.37797 z m 21.35059,-4.36626 c 0.35001,-0.17356 0.92277,-0.17356 1.27278,0 0.35,0.17356 0.0637,0.31554 -0.63639,0.31554 -0.70002,0 -0.98639,-0.142 -0.63639,-0.31554 z m -84.511447,-1.87685 c 0.35001,-0.17356 0.922747,-0.17356 1.272756,0 0.35001,0.17356 0.06363,0.31555 -0.636374,0.31555 -0.700019,0 -0.986392,-0.142 -0.636382,-0.31555 z m 53.280157,-2.18481 c -0.22981,-0.45691 -0.13912,-0.55204 0.24679,-0.25893 0.33554,0.25482 1.00096,0.0872 1.47871,-0.37256 0.7824,-0.75287 0.79925,-0.72716 0.16991,0.25896 -0.81239,1.27296 -1.38587,1.38567 -1.89541,0.37253 z m 13.67416,0.27335 c 0.77389,-0.14373 1.91937,-0.13988 2.54554,0.008 0.62616,0.14855 -0.008,0.26613 -1.40704,0.26146 -1.40005,-0.006 -1.91236,-0.12622 -1.1385,-0.27 z m 34.89853,0.0215 c 0.36752,-0.18068 0.80662,-0.15855 0.97579,0.0493 0.16913,0.20788 -0.13142,0.35575 -0.66821,0.32859 -0.59307,-0.03 -0.71372,-0.17818 -0.30758,-0.37797 z m -19.37781,-0.6126 c 0.35001,-0.17356 0.92274,-0.17356 1.27277,0 0.35001,0.17356 0.0637,0.31554 -0.63639,0.31554 -0.70003,0 -0.98639,-0.142 -0.63638,-0.31554 z m 28.54171,-1.88987 c 0.36751,-0.18068 0.80661,-0.15855 0.97578,0.0493 0.16914,0.20788 -0.13161,0.35574 -0.66821,0.32859 -0.59306,-0.03 -0.71371,-0.17818 -0.30757,-0.37799 z m -71.82414,-0.90146 c 0.34535,-0.42757 0.75614,-0.61978 0.9129,-0.42716 0.15674,0.19262 -0.12581,0.54244 -0.6279,0.77738 -0.72558,0.33951 -0.78405,0.26764 -0.285,-0.35022 z m 1.66308,0.46704 c 0,-0.12988 0.40092,-0.62259 0.89093,-1.09484 0.80748,-0.77817 0.82548,-0.75605 0.19223,0.23621 -0.66508,1.04212 -1.08315,1.37354 -1.08315,0.85863 z m 52.43783,0 c 0,-0.12988 0.34889,-0.59203 0.77531,-1.02692 0.64827,-0.66112 0.72278,-0.62243 0.45464,0.23622 -0.27385,0.87694 -1.22995,1.4916 -1.22995,0.7907 z m -1.11366,-1.44238 c 0.3675,-0.18069 0.80661,-0.15855 0.97579,0.0495 0.16914,0.20789 -0.13161,0.35574 -0.66821,0.32859 -0.59309,-0.03 -0.71371,-0.17837 -0.30758,-0.37798 z m 28.00078,0 c 0.36752,-0.18069 0.80662,-0.15855 0.97579,0.0495 0.16913,0.20789 -0.13161,0.35574 -0.66821,0.32859 -0.59307,-0.03 -0.71372,-0.17837 -0.30758,-0.37798 z m -69.00588,-1.88304 c 0.49534,-0.15855 1.18264,-0.14816 1.52732,0.0233 0.34467,0.17144 -0.0606,0.30115 -0.90063,0.28842 -0.84002,-0.0135 -1.12203,-0.15298 -0.62669,-0.31159 z m -57.411301,-12.0787 c 0.506808,-0.68818 1.036024,-1.25124 1.176025,-1.25124 0.140001,0 -0.16011,0.56306 -0.666918,1.25124 -0.506809,0.68819 -1.036017,1.25123 -1.176025,1.25123 -0.140001,0 0.160117,-0.56304 0.666918,-1.25123 z m 8.40024,-13.37413 c 0,-0.12987 0.400921,-0.62256 0.890931,-1.09481 0.807475,-0.7782 0.825483,-0.75607 0.192229,0.23621 -0.665084,1.04211 -1.083153,1.37352 -1.083153,0.8586 z m 6.363811,-1.01502 c 0.173064,-0.34409 0.415672,-0.62561 0.539156,-0.62561 0.12347,0 0.224501,0.28152 0.224501,0.62561 0,0.3441 -0.242615,0.62563 -0.539149,0.62563 -0.296533,0 -0.397564,-0.28153 -0.224508,-0.62563 z m 3.478884,-0.28528 c 0,-0.50099 0.19465,-0.76308 0.432561,-0.58239 0.237904,0.18068 0.300758,0.59059 0.139659,0.91091 -0.411676,0.81855 -0.572212,0.72637 -0.572212,-0.32852 z m 2.630378,-8.47333 c 1.378986,-1.72044 2.6218,-3.12807 2.761808,-3.12807 0.140001,0 -0.873715,1.40763 -2.252701,3.12807 -1.378986,1.72044 -2.6218,3.12808 -2.761801,3.12808 -0.140008,0 0.873708,-1.40764 2.252694,-3.12808 z m 3.309184,-3.94944 c 0,-0.10776 0.744568,-1.02263 1.654596,-2.03326 l 1.654589,-1.83748 -1.495286,2.03325 c -1.39382,1.89527 -1.813899,2.3208 -1.813899,1.83749 z M 80.81997,170.4812 c 0.14703,-0.29236 0.48061,-0.3696 0.74127,-0.17163 0.6661,0.50588 0.5911,0.70317 -0.26734,0.70317 -0.40769,0 -0.62096,-0.2392 -0.47393,-0.53156 z m -11.257886,-1.13676 c 0.506809,-0.68819 1.036017,-1.25124 1.176026,-1.25124 0.14,0 -0.16011,0.56305 -0.666919,1.25124 -0.506808,0.68817 -1.036016,1.25123 -1.176025,1.25123 -0.140001,0 0.160118,-0.56306 0.666918,-1.25123 z m 15.971876,-1.09482 c -0.63326,-0.99226 -0.61525,-1.0144 0.19222,-0.23622 0.84804,0.8173 1.11773,1.33104 0.69872,1.33104 -0.10571,0 -0.50663,-0.49267 -0.89093,-1.09482 z m 5.66509,-17.28421 c 0,-0.12988 0.40093,-0.62259 0.89094,-1.09484 0.80747,-0.77818 0.82548,-0.75605 0.19223,0.23621 -0.66508,1.04212 -1.08316,1.37352 -1.08316,0.85863 z m -59.5653,-4.37931 c 0,-0.12989 0.400921,-0.62259 0.890931,-1.09482 0.807475,-0.7782 0.825483,-0.75607 0.192229,0.23619 -0.665076,1.04211 -1.083153,1.37354 -1.083153,0.85863 z m 19.759646,-2.06802 c 0.367508,-0.18067 0.806607,-0.15855 0.975789,0.0495 0.169168,0.20789 -0.131521,0.35575 -0.668204,0.32859 -0.593082,-0.03 -0.713712,-0.17837 -0.307585,-0.37798 z m 51.005974,-4.81374 c 0,-0.12989 0.40093,-0.62259 0.89094,-1.09484 0.80746,-0.77818 0.82547,-0.75605 0.19222,0.23621 -0.66507,1.04212 -1.08314,1.37352 -1.08314,0.85863 z m -51.419621,-4.37932 c 0,-0.12988 0.400921,-0.62258 0.890932,-1.09481 0.807474,-0.7782 0.825475,-0.75607 0.192229,0.23619 -0.665084,1.04211 -1.083153,1.37354 -1.083153,0.85862 z m 57.075401,-2.42265 c -0.38412,-0.77419 -0.51759,-1.19894 -0.29657,-0.94385 0.22098,0.25507 0.67788,0.18222 1.01529,-0.16182 0.45872,-0.46783 0.55189,-0.22975 0.36933,0.94385 -0.13431,0.86322 -0.2769,1.56951 -0.3169,1.56951 -0.04,0 -0.38703,-0.63344 -0.77115,-1.40763 z m -19.53738,-4.30054 c 0.34534,-0.42755 0.75614,-0.61977 0.91289,-0.42716 0.15674,0.19263 -0.1258,0.54244 -0.62789,0.77738 -0.72558,0.3395 -0.78406,0.26766 -0.285,-0.35022 z m 13.78615,0.27589 c 0.36749,-0.18068 0.80661,-0.15855 0.97579,0.0495 0.16913,0.20787 -0.13161,0.35575 -0.66821,0.32857 -0.59309,-0.03 -0.71372,-0.17818 -0.30758,-0.37796 z m 7.22291,-2.70072 c 0,-0.34408 0.22912,-0.6256 0.50912,-0.6256 0.28001,0 0.5091,0.28152 0.5091,0.6256 0,0.34408 -0.22909,0.62561 -0.5091,0.62561 -0.28,0 -0.50912,-0.28153 -0.50912,-0.62561 z m 43.40122,-21.07655 c 0.49002,-0.15739 1.29186,-0.15739 1.78187,0 0.49003,0.1574 0.0891,0.28611 -0.89093,0.28611 -0.98002,0 -1.38095,-0.12873 -0.89094,-0.28611 z"
         id="path1038" />
      <path
         style="fill:#000000;fill-opacity:1;stroke-width:0.564362"
         d="m 27.601103,246.55576 c 0.02443,-0.72881 0.145063,-0.87704 0.307577,-0.37797 0.147064,0.45161 0.12898,0.99121 -0.04019,1.19909 -0.169175,0.20789 -0.289493,-0.16163 -0.26739,-0.82112 z m -9.331366,-0.0495 c 0.35001,-0.17357 0.922754,-0.17357 1.272764,0 0.350009,0.17356 0.06363,0.31554 -0.636382,0.31554 -0.700019,0 -0.986392,-0.14201 -0.636382,-0.31554 z m 20.628452,-4.39852 c 0.495346,-0.15855 1.182632,-0.14816 1.527314,0.0233 0.344682,0.17144 -0.06059,0.30115 -0.900621,0.2884 -0.840027,-0.0135 -1.122038,-0.15297 -0.626693,-0.31158 z m 9.408758,-0.60639 c 0.350009,-0.17356 0.922754,-0.17356 1.272764,0 0.350009,0.17356 0.06363,0.31557 -0.636382,0.31557 -0.70002,0 -0.986392,-0.14201 -0.636382,-0.31557 z m 8.686604,-0.0135 c 0.367508,-0.18067 0.806615,-0.15855 0.975789,0.0493 0.169175,0.20789 -0.131522,0.35576 -0.668204,0.32859 -0.593082,-0.03 -0.713712,-0.17818 -0.307585,-0.37797 z M 83.4352,238.99843 c 0.35001,-0.17356 0.92275,-0.17356 1.27277,0 0.35001,0.17356 0.0636,0.31555 -0.63638,0.31555 -0.70002,0 -0.9864,-0.14201 -0.63639,-0.31555 z m 32.10544,-2.5155 c 0.36752,-0.18067 0.80662,-0.15855 0.97579,0.0493 0.16913,0.20789 -0.13142,0.35576 -0.6682,0.32859 -0.59308,-0.03 -0.71371,-0.17818 -0.30759,-0.37797 z m 48.365,-10.00984 c 0.36751,-0.18067 0.80661,-0.15855 0.97579,0.0495 0.16913,0.20789 -0.13143,0.35576 -0.66822,0.32859 -0.59306,-0.03 -0.71371,-0.17818 -0.30757,-0.37797 z M 41.815853,215.4442 c 0,-0.10776 0.744567,-1.02264 1.654596,-2.03326 l 1.654588,-1.83749 -1.495285,2.03326 c -1.393821,1.89527 -1.813899,2.32081 -1.813899,1.83749 z m 0.763656,-6.06039 c 0.506809,-0.68818 1.036025,-1.25124 1.176026,-1.25124 0.14,0 -0.16011,0.56306 -0.666919,1.25124 -0.506808,0.68816 -1.036016,1.25122 -1.176025,1.25122 -0.140001,0 0.16011,-0.56306 0.666918,-1.25122 z m 3.818292,-7.11797 c 0,-0.12988 0.400921,-0.62259 0.890932,-1.09484 0.807474,-0.77817 0.825482,-0.75605 0.192229,0.23621 -0.665084,1.04212 -1.083153,1.37352 -1.083153,0.85863 z m 11.200309,-8.75863 c 0,-0.12987 0.400929,-0.62256 0.89094,-1.09481 0.807467,-0.7782 0.825475,-0.75607 0.192221,0.23621 -0.665076,1.04211 -1.083153,1.37352 -1.083153,0.8586 z m -20.968765,-40.2305 c 0.367508,-0.18068 0.806607,-0.15855 0.975789,0.0495 0.169167,0.20788 -0.131522,0.35574 -0.668204,0.32856 -0.593082,-0.03 -0.713712,-0.17817 -0.307585,-0.37796 z m -10.3412,-1.44949 c 0.506808,-0.68817 1.036016,-1.25123 1.176025,-1.25123 0.140001,0 -0.16011,0.56306 -0.666918,1.25123 -0.506809,0.68817 -1.036017,1.25122 -1.176026,1.25122 -0.14,0 0.160118,-0.56305 0.666919,-1.25122 z m 86.802435,-3.44088 c 0.65763,-0.86023 1.31025,-1.56403 1.45026,-1.56403 0.14008,0 -0.28351,0.7038 -0.94116,1.56403 -0.65764,0.86022 -1.31025,1.56403 -1.45025,1.56403 -0.14008,0 0.28351,-0.70381 0.94115,-1.56403 z m -70.256513,0.0766 c 0,-0.12989 0.400921,-0.62259 0.890931,-1.09482 0.807475,-0.7782 0.825476,-0.75606 0.192229,0.2362 -0.665083,1.04211 -1.083153,1.37353 -1.083153,0.85862 z m 66.565503,-15.8185 c 0.35,-0.17357 0.92276,-0.17357 1.27277,0 0.35001,0.17356 0.0637,0.31554 -0.63639,0.31554 -0.70003,0 -0.98639,-0.14201 -0.63638,-0.31554 z m -25.54981,-2.89711 c 0.19119,-0.617 0.47586,-0.96422 0.6326,-0.77159 0.15675,0.19261 3.3e-4,0.69744 -0.3476,1.12181 -0.50281,0.61326 -0.56128,0.54141 -0.285,-0.35022 z m 49.09593,-0.67844 c 0,-0.12989 0.40092,-0.62259 0.89093,-1.09482 0.80746,-0.7782 0.82547,-0.75607 0.19222,0.23621 -0.66507,1.04212 -1.08314,1.37352 -1.08314,0.85861 z m -12.47308,-1.01503 c -0.17298,-0.34408 -0.072,-0.6256 0.2245,-0.6256 0.29653,0 0.53915,0.28152 0.53915,0.6256 0,0.34411 -0.10102,0.62563 -0.22451,0.62563 -0.12353,0 -0.36609,-0.28152 -0.53914,-0.62563 z m -13.49129,-3.0695 c 0,-0.31187 0.45819,-0.4198 1.0182,-0.23982 0.56003,0.1799 1.01821,0.43512 1.01821,0.56702 0,0.13201 -0.45818,0.23986 -1.01821,0.23986 -0.56001,0 -1.0182,-0.25518 -1.0182,-0.56706 z"
         id="path1036" />
      <path
         style="fill:#000000;fill-opacity:1;stroke-width:0.564362"
         d="m 77.86686,239.61158 c 0.36751,-0.18069 0.80662,-0.15856 0.97579,0.0495 0.16918,0.20789 -0.13152,0.35576 -0.6682,0.32859 -0.59308,-0.03 -0.71371,-0.17818 -0.30759,-0.37796 z M 121.6181,230.866 c 0.35001,-0.17357 0.92275,-0.17357 1.27276,0 0.35001,0.17356 0.0637,0.31555 -0.63638,0.31555 -0.70004,0 -0.98639,-0.14201 -0.63638,-0.31555 z m -17.69141,-0.87383 c 0,-0.3644 0.22909,-0.48855 0.5091,-0.27589 0.28,0.21267 0.5091,0.51081 0.5091,0.66256 0,0.15181 -0.2291,0.27587 -0.5091,0.27587 -0.28001,0 -0.5091,-0.29814 -0.5091,-0.66254 z M 67.175654,228.3505 c 0.367508,-0.18068 0.806615,-0.15855 0.975789,0.0492 0.169175,0.2079 -0.131522,0.35577 -0.668204,0.3286 -0.593082,-0.03 -0.713712,-0.17818 -0.307585,-0.37797 z m 5.186508,-0.23517 c 0,-0.3644 0.229098,-0.48855 0.509107,-0.27589 0.280009,0.21266 0.509111,0.51081 0.509111,0.66255 0,0.15163 -0.229102,0.27587 -0.509111,0.27587 -0.280009,0 -0.509107,-0.29813 -0.509107,-0.66253 z m 16.291368,-1.52712 c 0.34858,-0.51612 0.85119,-0.93842 1.11691,-0.93842 0.26573,0 0.13949,0.4223 -0.28052,0.93842 -0.42001,0.51613 -0.92263,0.93844 -1.11691,0.93844 -0.19429,0 -0.068,-0.42231 0.28052,-0.93844 z m 11.87912,-0.59809 c 0,-0.50101 0.19465,-0.76308 0.43256,-0.58238 0.23791,0.18069 0.30075,0.59059 0.1397,0.91089 -0.41169,0.81854 -0.57221,0.72638 -0.57221,-0.32851 z m 61.84567,0.48354 c 0.36752,-0.18068 0.80662,-0.15855 0.97579,0.0495 0.16914,0.20788 -0.13161,0.35575 -0.66821,0.32859 -0.59307,-0.03 -0.71371,-0.17818 -0.30758,-0.37797 z m -25.48707,-1.23821 c 0.35001,-0.17356 0.92274,-0.17356 1.27277,0 0.35,0.17356 0.0637,0.31557 -0.63638,0.31557 -0.70004,0 -0.98639,-0.14201 -0.63639,-0.31557 z m 22.65518,-0.64252 c 0.49001,-0.1574 1.29186,-0.1574 1.78187,0 0.49001,0.1574 0.0891,0.28611 -0.89094,0.28611 -0.98003,0 -1.38095,-0.12873 -0.89093,-0.28611 z M 55.05259,206.88133 c 0,-0.34407 0.242616,-0.62559 0.539149,-0.62559 0.296533,0 0.397565,0.28152 0.224508,0.62559 -0.173064,0.34409 -0.415671,0.62562 -0.539156,0.62562 -0.123469,0 -0.224501,-0.28153 -0.224501,-0.62562 z m 2.290971,-7.50738 c 0.506808,-0.68817 1.036017,-1.25121 1.176025,-1.25121 0.140001,0 -0.16011,0.56304 -0.666918,1.25121 -0.506809,0.68819 -1.036017,1.25124 -1.176025,1.25124 -0.140001,0 0.160109,-0.56305 0.666918,-1.25124 z M 22.97896,158.74592 c 0,-1.5106 0.283122,-1.66299 0.686959,-0.36977 0.157727,0.50512 0.06766,1.08477 -0.200084,1.28814 -0.267778,0.20338 -0.486875,-0.2099 -0.486875,-0.91837 z m 3.468282,-1.08992 c 0.367508,-0.18068 0.806614,-0.15854 0.975789,0.0493 0.169175,0.20791 -0.131522,0.35576 -0.668204,0.32859 -0.593082,-0.03 -0.713712,-0.17818 -0.307585,-0.37796 z m 76.461228,-2.66379 c 0,-0.32378 0.22648,-0.76068 0.50327,-0.9709 0.28861,-0.21919 0.37395,0.032 0.2001,0.58868 -0.33845,1.08383 -0.70337,1.28214 -0.70337,0.38222 z M 52.969049,143.49998 c 0.227796,-0.27889 1.534346,-0.41516 2.903445,-0.30282 l 2.489281,0.20425 -2.903453,0.30281 c -1.596903,0.16663 -2.717077,0.0747 -2.489273,-0.20424 z m 14.206605,-2.73558 c 0.367508,-0.18068 0.806615,-0.15855 0.975789,0.0495 0.169175,0.20788 -0.131522,0.35574 -0.668204,0.32857 -0.593082,-0.03 -0.713712,-0.17818 -0.307585,-0.37797 z m 13.978266,-2.50864 c 0.49534,-0.15856 1.18263,-0.14817 1.52731,0.0233 0.34468,0.17144 -0.0606,0.30115 -0.90062,0.28839 -0.84002,-0.0135 -1.12203,-0.15297 -0.62669,-0.31158 z m -10.691215,-8.75861 c 0.495346,-0.15855 1.18264,-0.14816 1.527321,0.0231 0.344675,0.17144 -0.06059,0.30115 -0.900628,0.28841 -0.84002,-0.0135 -1.122031,-0.15297 -0.626693,-0.31158 z m 48.641685,-0.61943 c 0.36749,-0.18068 0.80662,-0.15855 0.97579,0.0495 0.16913,0.20787 -0.13162,0.35575 -0.66821,0.32857 -0.59309,-0.03 -0.71372,-0.17818 -0.30758,-0.37796 z m -44.41852,-1.63287 c 0.19118,-0.61699 0.47585,-0.96421 0.6326,-0.7716 0.15674,0.19263 3.2e-4,0.69743 -0.34761,1.12181 -0.50279,0.61328 -0.56127,0.54141 -0.28499,-0.35021 z m 8.02809,-1.35312 c 0,-0.501 0.19466,-0.76308 0.43257,-0.58239 0.23791,0.18067 0.30075,0.59058 0.13965,0.9109 -0.41166,0.81854 -0.57221,0.72638 -0.57221,-0.32851 z m 86.8873,-25.05214 c 0.65762,-0.86022 1.31025,-1.56403 1.45025,-1.56403 0.14008,0 -0.2835,0.70381 -0.94115,1.56403 -0.65765,0.86023 -1.31025,1.56405 -1.45025,1.56405 -0.14009,0 0.2835,-0.70382 0.94115,-1.56405 z"
         id="path1034" />
      <path
         style="fill:#000000;fill-opacity:1;stroke-width:0.564362"
         d="m 25.524488,248.135 c 0,-0.3644 0.229098,-0.48854 0.509107,-0.27588 0.280009,0.21266 0.509107,0.51081 0.509107,0.66255 0,0.15162 -0.229098,0.27587 -0.509107,0.27587 -0.280009,0 -0.509107,-0.29813 -0.509107,-0.66254 z m -14.859504,-0.39043 c 0.367508,-0.18068 0.806607,-0.15855 0.975782,0.0493 0.169174,0.20788 -0.131515,0.35576 -0.668197,0.32859 -0.593082,-0.03 -0.713712,-0.17818 -0.307585,-0.37797 z M 42.2295,241.48842 c 0.367508,-0.18068 0.806614,-0.15856 0.975789,0.0493 0.169175,0.20789 -0.131514,0.35576 -0.668205,0.32859 -0.593081,-0.03 -0.713711,-0.17818 -0.307584,-0.37797 z m 25.423439,0.0135 c 0.350009,-0.17356 0.922754,-0.17356 1.272764,0 0.350009,0.17357 0.06363,0.31557 -0.636382,0.31557 -0.70002,0 -0.986392,-0.142 -0.636382,-0.31557 z m -22.368805,-0.63864 c 0.367508,-0.18067 0.806607,-0.15855 0.975782,0.0495 0.169175,0.2079 -0.131514,0.35575 -0.668197,0.3286 -0.593081,-0.03 -0.713712,-0.17818 -0.307585,-0.37799 z m 8.622967,0.0135 c 0.35001,-0.17356 0.922755,-0.17356 1.272764,0 0.35001,0.17356 0.06363,0.31555 -0.636382,0.31555 -0.700019,0 -0.986391,-0.142 -0.636382,-0.31555 z m 37.419229,-2.55451 c 2.73008,-0.11257 7.19748,-0.11257 9.92754,0 2.73008,0.11256 0.49639,0.20452 -4.96376,0.20452 -5.46015,0 -7.69385,-0.092 -4.96378,-0.20452 z m 16.30105,0.0329 c 0.49534,-0.15856 1.18264,-0.14816 1.52732,0.0233 0.34468,0.17144 -0.0606,0.30115 -0.90061,0.28839 -0.84004,-0.0135 -1.12205,-0.15297 -0.62671,-0.31158 z m 14.49982,-3.10884 c 0.35,-0.17356 0.92275,-0.17356 1.27276,0 0.35001,0.17356 0.0637,0.31556 -0.63638,0.31556 -0.70002,0 -0.98639,-0.142 -0.63638,-0.31556 z m 4.61377,-0.63863 c 0.3675,-0.18069 0.80661,-0.15856 0.97579,0.0492 0.16913,0.20789 -0.13162,0.35576 -0.66822,0.32859 -0.59309,-0.03 -0.71371,-0.17818 -0.30757,-0.37796 z m -82.761422,-1.88075 c 0.490018,-0.1574 1.291853,-0.1574 1.781871,0 0.490011,0.15739 0.08909,0.28612 -0.890932,0.28612 -0.980028,0 -1.380949,-0.12873 -0.890939,-0.28612 z m 99.052772,-1.87294 c 0.36752,-0.18068 0.80661,-0.15855 0.97579,0.0495 0.16913,0.2079 -0.13162,0.35574 -0.66819,0.32859 -0.59309,-0.03 -0.71372,-0.17817 -0.3076,-0.37798 z m -86.038769,-0.62563 c 0.367508,-0.18068 0.806615,-0.15855 0.975789,0.0495 0.169175,0.20787 -0.131522,0.35574 -0.668204,0.32857 -0.593082,-0.03 -0.713712,-0.17818 -0.307585,-0.37796 z m 69.747419,0 c 0.3675,-0.18068 0.80661,-0.15855 0.97579,0.0495 0.16913,0.20787 -0.13162,0.35574 -0.66822,0.32857 -0.59309,-0.03 -0.71371,-0.17818 -0.30757,-0.37796 z m 19.31417,0.0135 c 0.35001,-0.17356 0.92274,-0.17356 1.27277,0 0.35001,0.17356 0.0637,0.31557 -0.63638,0.31557 -0.70004,0 -0.9864,-0.14201 -0.63639,-0.31557 z m -14.25496,-0.62561 c 0.35003,-0.17356 0.92277,-0.17356 1.27277,0 0.35001,0.17357 0.0637,0.31557 -0.63638,0.31557 -0.70002,0 -0.9864,-0.142 -0.63639,-0.31557 z m 10.21394,-1.88986 c 0.3675,-0.18069 0.80662,-0.15855 0.97579,0.0495 0.16913,0.20789 -0.13162,0.35574 -0.66821,0.32859 -0.59309,-0.03 -0.71372,-0.17818 -0.30758,-0.37798 z m 13.23672,0 c 0.36752,-0.18069 0.80662,-0.15855 0.97579,0.0495 0.16914,0.20789 -0.13161,0.35574 -0.66819,0.32859 -0.59309,-0.03 -0.71371,-0.17818 -0.3076,-0.37798 z m 4.07285,-0.62563 c 0.36752,-0.18068 0.80661,-0.15855 0.97579,0.0495 0.16913,0.20789 -0.13162,0.35574 -0.66821,0.32858 -0.59307,-0.03 -0.71372,-0.17818 -0.30758,-0.37797 z m -17.46866,-2.07507 c -0.17298,-0.34408 0.0425,-0.62561 0.47904,-0.62561 0.43654,0 0.79371,0.28153 0.79371,0.62561 0,0.34408 -0.21557,0.6256 -0.47905,0.6256 -0.26349,0 -0.62066,-0.28152 -0.7937,-0.6256 z m -46.71042,-0.41433 c 0.35003,-0.17356 0.92276,-0.17356 1.27277,0 0.35001,0.17355 0.0637,0.31554 -0.63638,0.31554 -0.70002,0 -0.9864,-0.142 -0.63639,-0.31554 z m 59.06215,-0.0281 c 0.63327,-0.1497 1.54966,-0.14393 2.03642,0.0135 0.48674,0.15663 -0.0314,0.27903 -1.15143,0.27209 -1.12002,-0.008 -1.51827,-0.13509 -0.88499,-0.28471 z m 16.66725,-1.4791 -3.56374,-0.35993 4.20012,-0.11045 c 2.31007,-0.0608 4.20013,1.7e-4 4.20013,0.13546 0,0.57032 -1.48698,0.67335 -4.83651,0.33502 z M 51.997956,194.75845 c 0,-0.12988 0.400921,-0.62259 0.890939,-1.09482 0.807467,-0.7782 0.825475,-0.75607 0.192221,0.23619 -0.665076,1.04214 -1.083153,1.37354 -1.083153,0.85863 z M 78.47142,173.44786 c 0,-0.49582 0.20774,-1.05926 0.46163,-1.2521 0.2539,-0.19282 0.34172,0.21286 0.19518,0.90152 -0.31087,1.46079 -0.65681,1.64545 -0.65681,0.35058 z m -7.891121,-4.72903 c 0.506808,-0.68818 1.036016,-1.25124 1.176017,-1.25124 0.140009,0 -0.16011,0.56306 -0.666918,1.25124 -0.506808,0.68819 -1.036017,1.25123 -1.176018,1.25123 -0.140008,0 0.16011,-0.56304 0.666919,-1.25123 z M 24.506281,154.71909 c 0,-0.12988 0.400914,-0.62259 0.890932,-1.09483 0.807474,-0.77818 0.825475,-0.75605 0.192221,0.2362 -0.665076,1.04212 -1.083145,1.37354 -1.083145,0.85863 z m 7.541116,-0.19126 c 0.367508,-0.18068 0.806614,-0.15856 0.975789,0.0495 0.169174,0.20789 -0.131522,0.35574 -0.668205,0.32857 -0.593081,-0.03 -0.713712,-0.17818 -0.307584,-0.37796 z m 47.346783,-16.266 c 0.36751,-0.18067 0.80662,-0.15855 0.97579,0.0495 0.16917,0.20789 -0.13152,0.35576 -0.66821,0.32859 -0.59308,-0.03 -0.71371,-0.17837 -0.30758,-0.37798 z m 5.82989,-0.64717 c 0.77387,-0.14374 1.91936,-0.13989 2.54553,0.008 0.62617,0.14854 -0.007,0.26615 -1.40704,0.26145 -1.40004,-0.004 -1.91236,-0.12622 -1.13849,-0.27 z m 4.35221,0.0215 c 0.36751,-0.18068 0.80662,-0.15856 0.97579,0.0495 0.16917,0.20789 -0.13151,0.35574 -0.6682,0.32859 -0.59308,-0.03 -0.71372,-0.17837 -0.30759,-0.37798 z m 9.16389,-3.12808 c 0.36752,-0.18068 0.80663,-0.15855 0.97579,0.0495 0.16913,0.20788 -0.13161,0.35574 -0.66819,0.32859 -0.59309,-0.03 -0.71372,-0.17818 -0.3076,-0.37799 z m 5.09106,-5.63053 c 0.3675,-0.18067 0.80662,-0.15855 0.97579,0.0495 0.16914,0.20789 -0.13161,0.35574 -0.66821,0.32857 -0.59309,-0.03 -0.71371,-0.17818 -0.30758,-0.37796 z m 4.67741,-3.95195 c -0.45886,-0.36438 -0.52165,-0.61027 -0.1574,-0.61602 0.33348,-0.006 0.74791,0.27194 0.92097,0.61602 0.39064,0.77672 0.21439,0.77672 -0.76365,0 z m 1.94095,-1.05297 c 0.36752,-0.18067 0.80662,-0.15855 0.97579,0.0495 0.16914,0.20789 -0.13161,0.35576 -0.66821,0.32859 -0.59307,-0.03 -0.71371,-0.17818 -0.30758,-0.37797 z m 8.6548,0 c 0.36749,-0.18067 0.80662,-0.15855 0.97579,0.0495 0.16913,0.20789 -0.13162,0.35576 -0.66821,0.32859 -0.59309,-0.03 -0.71372,-0.17818 -0.30758,-0.37797 z"
         id="path1032" />
      <path
         style="fill:#000000;fill-opacity:1;stroke-width:0.564362"
         d="m -0.185323,248.82598 c 1.895194,-2.63649 10.119904,-6.9697 17.0657,-8.9911 6.710929,-1.95306 9.204837,-2.47742 19.589871,-4.11895 1.960057,-0.30982 4.251027,-0.92444 5.091055,-1.36582 2.256743,-1.1858 8.251783,-2.28319 9.139168,-1.67294 0.472839,0.32519 1.347627,0.15682 2.287286,-0.44036 1.631565,-1.03681 8.179697,-2.90292 8.72718,-2.48712 0.376786,0.28616 7.964649,-1.4195 8.658237,-1.94627 0.250722,-0.19049 1.565385,0.3386 2.921466,1.1756 2.198,1.35664 2.66079,1.43936 4.26404,0.76205 1.11809,-0.47235 2.80488,-0.60112 4.45889,-0.34035 2.59943,0.40979 4.09044,-0.28391 4.09044,-1.90313 0,-0.31091 0.68728,-0.39638 1.52731,-0.18991 0.89686,0.22041 1.52731,0.11237 1.52731,-0.26152 0,-0.91926 0.96903,-1.25847 5.89691,-2.06433 3.83258,-0.62673 4.49549,-0.59296 5.19334,0.26457 0.70344,0.86444 0.7079,1.02643 0.0369,1.34282 -1.12814,0.53198 -0.60875,4.06549 0.59757,4.06549 0.50491,0 1.00533,-0.3219 1.11204,-0.71532 0.14047,-0.51779 0.47349,-0.53155 1.20602,-0.0499 1.21031,0.79598 4.95706,0.47698 5.20671,-0.44327 0.10968,-0.40444 0.78608,-0.26236 1.79097,0.37624 1.04813,0.66608 2.64179,0.98059 4.54203,0.89633 1.77627,-0.0787 2.92735,0.12912 2.92735,0.52863 0,0.69107 1.65491,0.9187 2.16066,0.29721 0.16163,-0.19865 1.51716,-0.46392 3.01221,-0.58947 5.87004,-0.49291 12.53118,-1.56915 15.36018,-2.48167 1.63291,-0.52672 3.18099,-0.79661 3.44017,-0.59978 0.25917,0.19685 2.74546,-0.36379 5.52509,-1.24587 3.71973,-1.18041 6.34825,-1.60377 9.9573,-1.60377 2.69691,0 5.34982,-0.29355 5.89536,-0.65231 0.54552,-0.35878 3.33691,-0.781 6.20306,-0.93826 3.97174,-0.21794 4.84793,-0.13373 3.68388,0.35447 -2.20476,0.92447 -7.45176,2.20193 -12.72765,3.09871 -2.52005,0.42838 -5.26921,1.14116 -6.10926,1.58396 -0.84001,0.44281 -3.58918,1.13439 -6.10926,1.53684 -4.7484,0.75833 -9.15622,1.75485 -15.27313,3.45299 -1.96006,0.54415 -5.39653,1.14785 -7.63658,1.34156 -2.24007,0.19373 -4.37804,0.71023 -4.75108,1.14783 -0.42829,0.50243 -1.47956,0.68462 -2.85281,0.49442 -1.33089,-0.18434 -2.64792,0.0298 -3.39461,0.55185 -0.90885,0.63546 -4.79105,0.94707 -15.22043,1.22164 -13.94685,0.3672 -24.10429,1.28859 -27.491678,2.49382 -1.504883,0.53542 -5.929264,1.1171 -9.927546,1.30515 -0.560018,0.0263 -2.392793,-0.26191 -4.072841,-0.64055 -4.514627,-1.01748 -19.607711,-0.0247 -22.146077,1.45672 -0.700019,0.40854 -2.390342,0.78707 -3.756275,0.84116 -2.857611,0.11314 -3.8803,0.90658 -3.8803,3.01033 0,1.53971 -1.179626,2.05928 -1.813572,0.79879 -0.19694,-0.39157 -0.978552,-0.53327 -1.811912,-0.32844 -0.806067,0.19809 -1.465572,0.10544 -1.465572,-0.20596 0,-0.57239 -9.15649,-0.47158 -9.987347,0.11005 -1.02517,0.71753 -3.206379,1.07912 -3.460587,0.57366 -0.325722,-0.64764 -2.739172,-0.17394 -3.136234,0.61549 -0.152757,0.30375 -1.176726,0.37562 -2.275451,0.15971 -1.465914,-0.28806 -2.372532,-0.096 -3.405741,0.7211 l -1.40803,1.11366 z m 33.97078,-24.22208 c 1.136036,-3.14641 7.184865,-13.06308 9.253352,-15.17029 0.479765,-0.48874 1.177334,-1.78577 1.55017,-2.88228 0.37282,-1.09651 2.654878,-4.72759 5.07122,-8.06906 4.502297,-6.22604 8.311767,-12.10122 9.204122,-14.19508 0.276409,-0.64858 0.636344,-1.17921 0.799856,-1.17921 0.675359,0 5.061409,-5.68332 5.061409,-6.55844 0,-0.52192 0.345733,-0.94894 0.768292,-0.94894 0.969518,0 3.805399,-3.28558 3.83837,-4.44705 0.03669,-1.29176 4.324632,-5.37429 14.260942,-13.57774 4.88324,-4.03162 10.33442,-8.73391 12.11373,-10.4495 1.77928,-1.7156 3.95571,-3.64166 4.83649,-4.2801 0.88077,-0.63846 1.68906,-1.45429 1.7962,-1.81296 0.43101,-1.44288 2.98348,-4.15657 4.28808,-4.55893 0.76336,-0.23545 1.79582,-1.06529 2.29435,-1.8441 0.49852,-0.77883 1.69767,-1.62427 2.66474,-1.87878 0.9671,-0.25454 1.98745,-0.67306 2.26745,-0.93009 0.28001,-0.25703 1.88369,-0.9725 3.56375,-1.58991 3.20745,-1.17875 4.22411,-1.88742 3.67528,-2.56187 -0.18126,-0.22282 -1.08245,0.0311 -2.00249,0.56434 -0.92003,0.53321 -3.16193,1.28714 -4.98199,1.6754 -3.45948,0.73798 -9.29552,2.79403 -10.81157,3.80889 -0.48622,0.32549 -1.79448,0.5918 -2.90727,0.5918 -1.11279,0 -2.30653,0.37263 -2.65277,0.82811 -0.34622,0.45545 -1.15666,0.70425 -1.80099,0.55289 -0.64433,-0.15143 -1.73661,0.17991 -2.42729,0.73594 -0.81712,0.65792 -2.37359,1.01323 -4.45562,1.01716 -3.95593,0.008 -15.73702,1.59333 -19.064059,2.56628 -1.35495,0.39622 -3.29658,1.24642 -4.314726,1.88933 -1.018153,0.64288 -2.436489,1.16889 -3.151868,1.16889 -0.715371,0 -1.436854,0.27077 -1.603296,0.60172 -0.193729,0.38519 -0.766032,0.38519 -1.590502,0 -1.669758,-0.78012 -6.821756,-0.78108 -6.821756,-0.002 0,0.33023 -0.630019,0.58132 -1.400039,0.55796 -1.542551,-0.0467 -6.052931,1.74505 -7.254751,2.88209 -0.42001,0.39738 -1.418009,1.06605 -2.217773,1.48596 -1.28702,0.67572 -1.418671,0.99568 -1.145611,2.78432 l 0.308506,2.02087 -2.364639,-0.23111 c -2.380494,-0.23266 -5.734714,0.73883 -7.493835,2.17039 -0.522153,0.42494 -1.230019,0.64027 -1.573026,0.47853 -0.343,-0.16183 -0.917495,0.14104 -1.276654,0.6728 -0.35915,0.53181 -1.266423,0.9669 -2.016159,0.9669 -0.749744,0 -1.63808,0.33784 -1.974085,0.75074 -0.475168,0.58391 -0.61093,0.52715 -0.61093,-0.25545 0,-1.30199 3.973804,-7.29383 6.180419,-9.31902 3.024898,-2.77623 6.711675,-5.28818 10.365496,-7.06242 1.960057,-0.9518 4.136486,-2.37758 4.836505,-3.1684 1.835629,-2.07374 3.25685,-2.84197 5.257665,-2.84197 1.033064,0 1.873031,-0.35918 2.032235,-0.86902 0.149241,-0.47794 1.376527,-1.34952 2.727268,-1.93679 1.350749,-0.5873 3.909801,-1.78781 5.686778,-2.66783 2.016761,-0.99879 3.355956,-1.3641 3.563735,-0.97214 0.612733,1.15588 2.448027,2.00582 3.559745,1.64858 0.605283,-0.19452 1.100515,-0.5394 1.100515,-0.76644 0,-0.22701 0.931172,-0.30366 2.069278,-0.17029 1.745017,0.2045 2.111878,0.0423 2.341144,-1.03499 0.16361,-0.76885 0.55424,-1.14435 0.98106,-0.94308 0.39006,0.18395 0.84845,-0.1116 1.01864,-0.65655 0.45494,-1.45686 5.6334,-3.34306 6.73285,-2.45238 0.47158,0.38204 0.78917,1.0428 0.70576,1.46836 -0.29481,1.50406 0.49679,4.34763 1.21032,4.34763 0.39776,0 0.72321,-0.28152 0.72321,-0.62563 0,-0.87548 1.39924,-0.78494 1.64097,0.10622 0.14327,0.52821 0.64492,0.45813 1.80311,-0.25187 1.36314,-0.83565 1.69284,-0.85303 2.19091,-0.11546 0.35936,0.5321 1.40214,0.81728 2.69398,0.73676 1.15922,-0.0722 2.33876,0.0473 2.62119,0.26578 0.28243,0.21842 1.54248,0.13989 2.80009,-0.17452 1.25761,-0.31445 3.66115,-0.86188 5.3412,-1.21651 1.68004,-0.35464 3.85646,-0.96632 4.8365,-1.35929 0.98002,-0.39298 2.24004,-0.77933 2.80008,-0.85857 0.56001,-0.0793 2.27824,-0.73317 3.81828,-1.45318 1.54003,-0.72 3.99166,-1.30925 5.44804,-1.30941 4.66499,-5.7e-4 13.55361,-3.80022 14.27206,-6.10094 0.14028,-0.44943 1.22163,-1.35816 2.40282,-2.0194 2.94861,-1.65066 3.71895,-2.86226 2.87527,-4.52234 -0.54444,-1.07134 -0.51573,-1.44504 0.17626,-2.29525 0.71033,-0.87268 0.89059,-0.88853 1.28088,-0.11276 0.38457,0.76438 0.67459,0.77594 1.89074,0.0754 0.79009,-0.45509 2.27028,-0.92842 3.28935,-1.05183 1.01906,-0.12334 2.92809,-0.7908 4.24232,-1.48306 1.31422,-0.69227 2.93185,-1.25867 3.59475,-1.25867 0.66288,0 1.40309,-0.43442 1.6449,-0.96539 0.27491,-0.60368 1.31256,-1.02861 2.7692,-1.13406 1.28125,-0.0927 2.91951,-0.64365 3.64058,-1.22424 0.72107,-0.58058 2.25054,-1.0556 3.39883,-1.0556 1.14829,0 2.58821,-0.32763 3.19981,-0.72805 1.0079,-0.65986 1.04612,-0.62986 0.40825,0.3203 -0.81306,1.21113 -18.08716,14.30181 -27.80611,21.07207 -5.99238,4.17431 -9.40274,7.28247 -9.97301,9.08927 -0.27488,0.87088 -5.7157,4.65524 -6.69292,4.65524 -0.41785,0 -1.40118,1.13744 -2.18519,2.52765 -0.78401,1.39024 -2.07519,2.99933 -2.86931,3.57578 -0.79414,0.57646 -1.44387,1.26894 -1.44387,1.53883 0,0.2699 -0.3046,0.49074 -0.67689,0.49074 -0.37231,0 -2.03325,1.50391 -3.69101,3.34206 -3.70612,4.10937 -4.48978,4.59145 -7.18038,4.41722 -1.87568,-0.12142 -2.26214,0.0979 -3.23837,1.83832 -0.62763,1.11892 -2.21301,2.58334 -3.65447,3.37563 -2.24547,1.2342 -2.50978,1.57649 -2.2394,2.90027 0.23574,1.15414 0.0724,1.57615 -0.70676,1.82656 -0.58259,0.18722 -1.01334,0.85376 -1.01334,1.56804 0,0.71659 -1.30509,2.7272 -3.08365,4.75069 -2.31324,2.63177 -3.46356,3.50826 -4.60427,3.50826 -1.12242,0 -1.48144,-0.26471 -1.37101,-1.01089 0.17966,-1.2141 -2.315,-3.69706 -3.10877,-3.09421 -0.30797,0.23389 -0.55993,0.97169 -0.55993,1.63957 0,1.1455 -0.49221,1.48064 -1.86882,1.27239 -0.74945,-0.11334 -3.22223,2.65771 -3.22223,3.61094 0,0.68695 -0.91406,0.95538 -2.58932,0.76038 -0.44409,-0.0518 -1.69162,0.90123 -2.772286,2.11762 -1.080664,1.21636 -2.333182,2.21158 -2.783379,2.21158 -0.921262,0 -10.478408,11.33816 -13.05897,15.49258 -0.923789,1.48719 -2.360095,3.40762 -3.191781,4.26759 -0.831686,0.85995 -2.019615,2.60741 -2.639838,3.88322 -1.941524,3.99371 -5.134143,8.8886 -5.797461,8.8886 -0.349576,0 -1.524474,1.27155 -2.610893,2.82567 -4.536973,6.49016 -7.144822,9.89281 -8.472082,11.05421 l -1.408799,1.23272 z m 105.905873,0.61464 c 0.49001,-0.1574 1.29185,-0.1574 1.78187,0 0.49001,0.1574 0.0891,0.2861 -0.89094,0.2861 -0.98004,0 -1.38096,-0.12872 -0.89093,-0.2861 z M 55.601641,200.15597 c 0.931256,-1.5133 2.093733,-2.65886 2.698133,-2.65886 0.278875,0 -0.151418,0.84458 -0.956213,1.87684 -1.571063,2.01512 -2.855617,2.59181 -1.74192,0.78202 z m 53.670639,-75.2302 c -0.18164,-0.36103 0.29015,-0.62157 1.11545,-0.61602 1.11041,0.008 1.25938,0.14508 0.66642,0.61602 -0.97814,0.77679 -1.39118,0.77679 -1.78187,0 z"
         id="path1030" />
    </g>
  </g>
</svg>
